REM DIRINDEX 1\2\6,1\2\7,1\2\8,1\3\9,1\3\10,1\3\11,1\4\12,1\4\13,1\4\14,1\5\15,1\5\16,1\5\17,1\5\18
REM DIRNAME cjc019,folder01,folder02,folder03,folder04,folder05,folder06,folder07,folder08,folder09,folder10,folder11,folder12,folder13,folder14,folder15,folder16,folder17
TITLE ""
FILE "2Q_t_0423-0440.mp3" MP3
  TRACK 01 AUDIO
    TITLE "13:cjc019_2904"
    INDEX 01 00:00:00
  TRACK 02 AUDIO
    TITLE "0:"
    INDEX 01 00:01:28
  TRACK 03 AUDIO
    TITLE "14:cjc019_2905"
    INDEX 01 00:02:10
  TRACK 04 AUDIO
    TITLE "0:"
    INDEX 01 00:03:33
  TRACK 05 AUDIO
    TITLE "13:cjc019_2906"
    INDEX 01 00:04:19
  TRACK 06 AUDIO
    TITLE "0:"
    INDEX 01 00:05:28
  TRACK 07 AUDIO
    TITLE "14:cjc019_2907"
    INDEX 01 00:06:06
  TRACK 08 AUDIO
    TITLE "0:"
    INDEX 01 00:07:45
  TRACK 09 AUDIO
    TITLE "13:cjc019_2908"
    INDEX 01 00:08:23
  TRACK 10 AUDIO
    TITLE "0:"
    INDEX 01 00:09:61
  TRACK 11 AUDIO
    TITLE "14:cjc019_2909"
    INDEX 01 00:10:55
  TRACK 12 AUDIO
    TITLE "0:"
    INDEX 01 00:12:18
  TRACK 13 AUDIO
    TITLE "13:cjc019_2910"
    INDEX 01 00:12:73
  TRACK 14 AUDIO
    TITLE "0:"
    INDEX 01 00:14:15
  TRACK 15 AUDIO
    TITLE "14:cjc019_2911"
    INDEX 01 00:14:68
  TRACK 16 AUDIO
    TITLE "0:"
    INDEX 01 00:16:16
  TRACK 17 AUDIO
    TITLE "13:cjc019_2912"
    INDEX 01 00:16:67
  TRACK 18 AUDIO
    TITLE "0:"
    INDEX 01 00:17:72
  TRACK 19 AUDIO
    TITLE "14:cjc019_2913"
    INDEX 01 00:18:58
  TRACK 20 AUDIO
    TITLE "0:"
    INDEX 01 00:23:16
  TRACK 21 AUDIO
    TITLE "13:cjc019_2914"
    INDEX 01 00:23:73
  TRACK 22 AUDIO
    TITLE "0:"
    INDEX 01 00:25:19
  TRACK 23 AUDIO
    TITLE "14:cjc019_2915"
    INDEX 01 00:25:68
  TRACK 24 AUDIO
    TITLE "0:"
    INDEX 01 00:27:36
  TRACK 25 AUDIO
    TITLE "13:cjc019_2916"
    INDEX 01 00:28:13
  TRACK 26 AUDIO
    TITLE "0:"
    INDEX 01 00:29:25
  TRACK 27 AUDIO
    TITLE "14:cjc019_2917"
    INDEX 01 00:30:05
  TRACK 28 AUDIO
    TITLE "0:"
    INDEX 01 00:33:52
  TRACK 29 AUDIO
    TITLE "13:cjc019_2918"
    INDEX 01 00:34:34
  TRACK 30 AUDIO
    TITLE "0:"
    INDEX 01 00:35:55
  TRACK 31 AUDIO
    TITLE "14:cjc019_2919"
    INDEX 01 00:36:38
  TRACK 32 AUDIO
    TITLE "0:"
    INDEX 01 00:39:43
  TRACK 33 AUDIO
    TITLE "13:cjc019_2920"
    INDEX 01 00:40:24
  TRACK 34 AUDIO
    TITLE "0:"
    INDEX 01 00:41:42
  TRACK 35 AUDIO
    TITLE "14:cjc019_2921"
    INDEX 01 00:42:25
  TRACK 36 AUDIO
    TITLE "0:"
    INDEX 01 00:43:70
  TRACK 37 AUDIO
    TITLE "13:cjc019_2922"
    INDEX 01 00:44:40
  TRACK 38 AUDIO
    TITLE "0:"
    INDEX 01 00:45:63
  TRACK 39 AUDIO
    TITLE "14:cjc019_2923"
    INDEX 01 00:46:37
  TRACK 40 AUDIO
    TITLE "0:"
    INDEX 01 00:51:34
  TRACK 41 AUDIO
    TITLE "13:cjc019_2924"
    INDEX 01 00:52:08
  TRACK 42 AUDIO
    TITLE "0:"
    INDEX 01 00:53:19
  TRACK 43 AUDIO
    TITLE "14:cjc019_2925"
    INDEX 01 00:54:03
  TRACK 44 AUDIO
    TITLE "0:"
    INDEX 01 00:56:37
  TRACK 45 AUDIO
    TITLE "13:cjc019_2926"
    INDEX 01 00:57:17
  TRACK 46 AUDIO
    TITLE "0:"
    INDEX 01 00:58:34
  TRACK 47 AUDIO
    TITLE "14:cjc019_2927"
    INDEX 01 00:59:16
  TRACK 48 AUDIO
    TITLE "0:"
    INDEX 01 01:02:40
  TRACK 49 AUDIO
    TITLE "13:cjc019_2928"
    INDEX 01 01:03:12
  TRACK 50 AUDIO
    TITLE "0:"
    INDEX 01 01:04:13
  TRACK 51 AUDIO
    TITLE "14:cjc019_2929"
    INDEX 01 01:04:68
  TRACK 52 AUDIO
    TITLE "0:"
    INDEX 01 01:09:36
  TRACK 53 AUDIO
    TITLE "13:cjc019_2930"
    INDEX 01 01:10:16
  TRACK 54 AUDIO
    TITLE "0:"
    INDEX 01 01:11:33
  TRACK 55 AUDIO
    TITLE "14:cjc019_2931"
    INDEX 01 01:12:17
  TRACK 56 AUDIO
    TITLE "0:"
    INDEX 01 01:16:18
  TRACK 57 AUDIO
    TITLE "13:cjc019_2932"
    INDEX 01 01:16:65
  TRACK 58 AUDIO
    TITLE "0:"
    INDEX 01 01:18:17
  TRACK 59 AUDIO
    TITLE "14:cjc019_2933"
    INDEX 01 01:18:72
  TRACK 60 AUDIO
    TITLE "0:"
    INDEX 01 01:23:26
  TRACK 61 AUDIO
    TITLE "13:cjc019_2934"
    INDEX 01 01:24:02
  TRACK 62 AUDIO
    TITLE "0:"
    INDEX 01 01:25:11
  TRACK 63 AUDIO
    TITLE "14:cjc019_2935"
    INDEX 01 01:25:72
  TRACK 64 AUDIO
    TITLE "0:"
    INDEX 01 01:30:13
  TRACK 65 AUDIO
    TITLE "13:cjc019_2936"
    INDEX 01 01:30:66
  TRACK 66 AUDIO
    TITLE "0:"
    INDEX 01 01:32:15
  TRACK 67 AUDIO
    TITLE "14:cjc019_2937"
    INDEX 01 01:32:72
  TRACK 68 AUDIO
    TITLE "0:"
    INDEX 01 01:40:64
  TRACK 69 AUDIO
    TITLE "13:cjc019_2938"
    INDEX 01 01:41:32
  TRACK 70 AUDIO
    TITLE "0:"
    INDEX 01 01:42:51
  TRACK 71 AUDIO
    TITLE "14:cjc019_2939"
    INDEX 01 01:43:37
  TRACK 72 AUDIO
    TITLE "0:"
    INDEX 01 01:46:57
